<svg xmlns="http://www.w3.org/2000/svg" xmlns:xlink="http://www.w3.org/1999/xlink" width="500" zoomAndPan="magnify" viewBox="0 0 375 149.999998" height="200" preserveAspectRatio="xMidYMid meet" version="1.0"><defs><g/></defs><g fill="#000000" fill-opacity="1"><g transform="translate(3.921439, 108.507112)"><g><path d="M 47.871094 -12.039062 C 45.050781 -5.078125 38.84375 -1.035156 32.730469 -1.035156 C 27.367188 -1.035156 23.605469 -3.949219 21.632812 -6.582031 C 17.871094 -11.660156 17.773438 -17.117188 17.773438 -24.171875 L 17.773438 -38.75 C 17.773438 -47.777344 19.28125 -52.386719 22.195312 -55.675781 C 24.921875 -58.78125 28.402344 -60.566406 32.824219 -60.566406 C 37.621094 -60.566406 41.570312 -58.40625 44.015625 -55.019531 C 46.929688 -51.070312 47.871094 -46.835938 47.871094 -37.996094 Z M 59.0625 -33.953125 C 59.0625 -42.980469 57.085938 -48.8125 51.914062 -54.453125 C 47.117188 -59.628906 39.78125 -62.542969 32.824219 -62.542969 C 21.441406 -62.542969 11.191406 -55.300781 7.996094 -44.765625 C 6.867188 -41.195312 6.582031 -38.277344 6.582031 -34.234375 L 6.582031 -27.367188 C 6.582031 -19.1875 8.839844 -12.695312 13.355469 -7.617188 C 17.871094 -2.539062 24.921875 0.941406 32.257812 0.941406 C 38.9375 0.941406 45.050781 -2.820312 47.964844 -7.804688 L 47.964844 0 L 65.550781 0 L 65.550781 -1.976562 L 59.0625 -1.976562 Z M 59.0625 -33.953125 "/></g></g></g><g fill="#000000" fill-opacity="1"><g transform="translate(72.950984, 108.507112)"><g><path d="M 23.792969 -77.214844 C 23.792969 -80.507812 21.066406 -83.234375 17.773438 -83.234375 C 14.484375 -83.234375 11.757812 -80.507812 11.757812 -77.214844 C 11.757812 -73.921875 14.484375 -71.195312 17.773438 -71.195312 C 21.066406 -71.195312 23.792969 -73.921875 23.792969 -77.214844 Z M 30.097656 0 L 30.097656 -1.976562 L 23.792969 -1.976562 L 23.792969 -61.695312 L 6.113281 -61.695312 L 6.113281 -59.722656 L 12.601562 -59.722656 L 12.601562 -1.976562 L 6.113281 -1.976562 L 6.113281 0 Z M 30.097656 0 "/></g></g></g><g fill="#000000" fill-opacity="1"><g transform="translate(108.688342, 108.507112)"><g><path d="M 88.21875 -59.722656 L 88.21875 -61.695312 L 75.425781 -61.695312 L 75.425781 -59.722656 L 80.410156 -59.722656 L 58.59375 -14.390625 L 49.28125 -35.082031 L 61.226562 -59.722656 L 66.210938 -59.722656 L 66.210938 -61.695312 L 53.230469 -61.695312 L 53.230469 -59.722656 L 58.875 -59.722656 L 48.152344 -37.527344 L 38.089844 -59.722656 L 44.671875 -59.722656 L 44.671875 -61.695312 L 22.761719 -61.695312 L 22.761719 -59.722656 L 26.429688 -59.722656 L 42.226562 -25.109375 L 37.054688 -14.390625 L 16.457031 -59.722656 L 20.691406 -59.722656 L 20.691406 -61.695312 L 0 -61.695312 L 0 -59.722656 L 4.796875 -59.722656 L 32.257812 0.46875 L 43.355469 -22.570312 L 53.890625 0.375 L 83.046875 -59.722656 Z M 88.21875 -59.722656 "/></g></g></g><g fill="#000000" fill-opacity="1"><g transform="translate(194.08185, 108.507112)"><g><path d="M 58.96875 -29.4375 L 58.96875 -33.761719 C 58.96875 -45.050781 55.960938 -50.785156 50.222656 -56.054688 C 45.707031 -60.191406 38.84375 -62.542969 32.824219 -62.542969 C 17.304688 -62.542969 6.582031 -50.878906 6.582031 -34.890625 L 6.582031 -27.367188 C 6.582031 -18.527344 8.558594 -12.695312 13.449219 -7.335938 C 18.058594 -2.351562 25.015625 0.941406 33.386719 0.941406 C 44.390625 0.941406 52.855469 -4.890625 57.933594 -15.988281 L 56.148438 -16.835938 C 50.785156 -5.925781 43.542969 -1.035156 33.667969 -1.035156 C 26.332031 -1.035156 21.726562 -4.515625 19.5625 -9.96875 C 17.964844 -14.011719 17.773438 -19.1875 17.773438 -26.144531 L 17.773438 -29.4375 Z M 47.871094 -31.414062 L 17.773438 -31.414062 L 17.773438 -38.75 C 17.773438 -47.777344 19.28125 -52.386719 22.195312 -55.675781 C 24.921875 -58.78125 28.402344 -60.566406 32.824219 -60.566406 C 37.621094 -60.566406 41.570312 -58.40625 44.015625 -55.019531 C 46.929688 -51.070312 47.871094 -46.835938 47.871094 -37.996094 Z M 47.871094 -31.414062 "/></g></g></g><g fill="#000000" fill-opacity="1"><g transform="translate(257.750806, 108.507112)"><g><path d="M 47.871094 -12.039062 C 45.050781 -5.078125 38.84375 -1.035156 32.730469 -1.035156 C 27.367188 -1.035156 23.605469 -3.949219 21.632812 -6.582031 C 17.871094 -11.660156 17.773438 -17.117188 17.773438 -24.171875 L 17.773438 -38.75 C 17.773438 -47.777344 19.28125 -52.386719 22.195312 -55.675781 C 24.921875 -58.78125 28.402344 -60.566406 32.824219 -60.566406 C 37.621094 -60.566406 41.570312 -58.40625 44.015625 -55.019531 C 46.929688 -51.070312 47.871094 -46.835938 47.871094 -37.996094 Z M 59.0625 -33.953125 C 59.0625 -42.980469 57.085938 -48.8125 51.914062 -54.453125 C 47.117188 -59.628906 39.78125 -62.542969 32.824219 -62.542969 C 21.441406 -62.542969 11.191406 -55.300781 7.996094 -44.765625 C 6.867188 -41.195312 6.582031 -38.277344 6.582031 -34.234375 L 6.582031 -27.367188 C 6.582031 -19.1875 8.839844 -12.695312 13.355469 -7.617188 C 17.871094 -2.539062 24.921875 0.941406 32.257812 0.941406 C 38.9375 0.941406 45.050781 -2.820312 47.964844 -7.804688 L 47.964844 0 L 65.550781 0 L 65.550781 -1.976562 L 59.0625 -1.976562 Z M 59.0625 -33.953125 "/></g></g></g><g fill="#000000" fill-opacity="1"><g transform="translate(326.780351, 108.507112)"><g><path d="M 22.855469 -61.695312 L 5.171875 -61.695312 L 5.171875 -59.722656 L 11.660156 -59.722656 L 11.660156 -1.976562 L 5.171875 -1.976562 L 5.171875 0 L 29.90625 0 L 29.90625 -1.976562 L 22.855469 -1.976562 L 22.855469 -51.632812 C 25.769531 -56.898438 30.660156 -60.472656 34.515625 -60.472656 C 35.457031 -60.472656 36.113281 -60.285156 36.304688 -60.191406 C 33.292969 -59.816406 31.035156 -57.085938 31.035156 -53.890625 C 31.035156 -50.128906 33.859375 -47.308594 37.621094 -47.308594 C 41.476562 -47.308594 44.296875 -50.316406 44.296875 -54.265625 C 44.296875 -58.96875 40.441406 -62.542969 35.175781 -62.542969 C 30.285156 -62.542969 25.488281 -59.15625 22.855469 -54.925781 Z M 22.855469 -61.695312 "/></g></g></g></svg>