<?xml version="1.0" standalone="no"?><svg xmlns="http://www.w3.org/2000/svg" viewBox="0 0 1440 320"><path fill="#0099ff" fill-opacity="1" d="M0,96L9.6,85.3C19.2,75,38,53,58,69.3C76.8,85,96,139,115,170.7C134.4,203,154,213,173,186.7C192,160,211,96,230,74.7C249.6,53,269,75,288,101.3C307.2,128,326,160,346,165.3C364.8,171,384,149,403,128C422.4,107,442,85,461,112C480,139,499,213,518,213.3C537.6,213,557,139,576,128C595.2,117,614,171,634,197.3C652.8,224,672,224,691,186.7C710.4,149,730,75,749,90.7C768,107,787,213,806,240C825.6,267,845,213,864,176C883.2,139,902,117,922,128C940.8,139,960,181,979,186.7C998.4,192,1018,160,1037,170.7C1056,181,1075,235,1094,245.3C1113.6,256,1133,224,1152,202.7C1171.2,181,1190,171,1210,181.3C1228.8,192,1248,224,1267,234.7C1286.4,245,1306,235,1325,224C1344,213,1363,203,1382,186.7C1401.6,171,1421,149,1430,138.7L1440,128L1440,0L1430.4,0C1420.8,0,1402,0,1382,0C1363.2,0,1344,0,1325,0C1305.6,0,1286,0,1267,0C1248,0,1229,0,1210,0C1190.4,0,1171,0,1152,0C1132.8,0,1114,0,1094,0C1075.2,0,1056,0,1037,0C1017.6,0,998,0,979,0C960,0,941,0,922,0C902.4,0,883,0,864,0C844.8,0,826,0,806,0C787.2,0,768,0,749,0C729.6,0,710,0,691,0C672,0,653,0,634,0C614.4,0,595,0,576,0C556.8,0,538,0,518,0C499.2,0,480,0,461,0C441.6,0,422,0,403,0C384,0,365,0,346,0C326.4,0,307,0,288,0C268.8,0,250,0,230,0C211.2,0,192,0,173,0C153.6,0,134,0,115,0C96,0,77,0,58,0C38.4,0,19,0,10,0L0,0Z"></path></svg>